<svg width="275" height="51" viewBox="0 0 275 51" fill="none" xmlns="http://www.w3.org/2000/svg">
<path d="M10.808 19.9735C12.544 19.9735 14.0467 20.2628 15.316 20.8415C16.604 21.4202 17.5933 22.2415 18.284 23.3055C18.9747 24.3695 19.32 25.6295 19.32 27.0855C19.32 28.5228 18.9747 29.7828 18.284 30.8655C17.5933 31.9295 16.604 32.7508 15.316 33.3295C14.0467 33.8895 12.544 34.1695 10.808 34.1695H6.86V39.5735H2.324V19.9735H10.808ZM10.556 30.4735C11.9187 30.4735 12.9547 30.1842 13.664 29.6055C14.3733 29.0082 14.728 28.1682 14.728 27.0855C14.728 25.9842 14.3733 25.1442 13.664 24.5655C12.9547 23.9682 11.9187 23.6695 10.556 23.6695H6.86V30.4735H10.556ZM22.2504 24.5095H26.6184V39.5735H22.2504V24.5095ZM24.4344 22.4095C23.6317 22.4095 22.9784 22.1762 22.4744 21.7095C21.9704 21.2428 21.7184 20.6642 21.7184 19.9735C21.7184 19.2828 21.9704 18.7042 22.4744 18.2375C22.9784 17.7708 23.6317 17.5375 24.4344 17.5375C25.237 17.5375 25.8904 17.7615 26.3944 18.2095C26.8984 18.6575 27.1504 19.2175 27.1504 19.8895C27.1504 20.6175 26.8984 21.2242 26.3944 21.7095C25.8904 22.1762 25.237 22.4095 24.4344 22.4095ZM49.9643 24.2855C51.8496 24.2855 53.3429 24.8455 54.4443 25.9655C55.5643 27.0668 56.1243 28.7282 56.1243 30.9495V39.5735H51.7563V31.6215C51.7563 30.4268 51.5043 29.5402 51.0003 28.9615C50.5149 28.3642 49.8149 28.0655 48.9003 28.0655C47.8736 28.0655 47.0616 28.4015 46.4643 29.0735C45.8669 29.7268 45.5683 30.7068 45.5683 32.0135V39.5735H41.2003V31.6215C41.2003 29.2508 40.2483 28.0655 38.3443 28.0655C37.3363 28.0655 36.5336 28.4015 35.9363 29.0735C35.3389 29.7268 35.0403 30.7068 35.0403 32.0135V39.5735H30.6723V24.5095H34.8443V26.2455C35.4043 25.6108 36.0856 25.1255 36.8882 24.7895C37.7096 24.4535 38.6056 24.2855 39.5763 24.2855C40.6403 24.2855 41.6016 24.5002 42.4603 24.9295C43.3189 25.3402 44.0096 25.9468 44.5323 26.7495C45.1483 25.9655 45.9229 25.3588 46.8563 24.9295C47.8083 24.5002 48.8443 24.2855 49.9643 24.2855ZM68.9434 24.2855C70.3434 24.2855 71.6128 24.6122 72.7514 25.2655C73.9088 25.9002 74.8141 26.8055 75.4674 27.9815C76.1208 29.1388 76.4474 30.4922 76.4474 32.0415C76.4474 33.5908 76.1208 34.9535 75.4674 36.1295C74.8141 37.2868 73.9088 38.1922 72.7514 38.8455C71.6128 39.4802 70.3434 39.7975 68.9434 39.7975C67.0208 39.7975 65.5088 39.1908 64.4074 37.9775V45.0055H60.0394V24.5095H64.2114V26.2455C65.2941 24.9388 66.8714 24.2855 68.9434 24.2855ZM68.1874 36.2135C69.3074 36.2135 70.2221 35.8402 70.9314 35.0935C71.6594 34.3282 72.0234 33.3108 72.0234 32.0415C72.0234 30.7722 71.6594 29.7642 70.9314 29.0175C70.2221 28.2522 69.3074 27.8695 68.1874 27.8695C67.0674 27.8695 66.1434 28.2522 65.4154 29.0175C64.7061 29.7642 64.3514 30.7722 64.3514 32.0415C64.3514 33.3108 64.7061 34.3282 65.4154 35.0935C66.1434 35.8402 67.0674 36.2135 68.1874 36.2135ZM105.109 19.9735V33.4415C105.109 36.3908 104.288 38.6495 102.645 40.2175C101.002 41.8042 98.7345 42.5975 95.8412 42.5975C94.1798 42.5975 92.6585 42.3642 91.2772 41.8975C89.8958 41.4495 88.7198 40.8055 87.7492 39.9655L89.5132 36.6055C91.2865 38.0428 93.3585 38.7615 95.7292 38.7615C97.3718 38.7615 98.5852 38.3508 99.3692 37.5295C100.172 36.6895 100.573 35.4015 100.573 33.6655V32.4615C99.2665 34.0668 97.4185 34.8695 95.0292 34.8695C92.5465 34.8695 90.6332 34.1695 89.2892 32.7695C87.9638 31.3508 87.3012 29.3162 87.3012 26.6655V19.9735H91.8372V26.3855C91.8372 27.9162 92.2012 29.0735 92.9292 29.8575C93.6572 30.6415 94.6838 31.0335 96.0092 31.0335C97.4092 31.0335 98.5198 30.6228 99.3412 29.8015C100.162 28.9802 100.573 27.7388 100.573 26.0775V19.9735H105.109ZM116.454 39.7975C114.867 39.7975 113.439 39.4708 112.17 38.8175C110.919 38.1455 109.939 37.2215 109.23 36.0455C108.52 34.8695 108.166 33.5348 108.166 32.0415C108.166 30.5482 108.52 29.2135 109.23 28.0375C109.939 26.8615 110.919 25.9468 112.17 25.2935C113.439 24.6215 114.867 24.2855 116.454 24.2855C118.04 24.2855 119.459 24.6215 120.71 25.2935C121.96 25.9468 122.94 26.8615 123.65 28.0375C124.359 29.2135 124.714 30.5482 124.714 32.0415C124.714 33.5348 124.359 34.8695 123.65 36.0455C122.94 37.2215 121.96 38.1455 120.71 38.8175C119.459 39.4708 118.04 39.7975 116.454 39.7975ZM116.454 36.2135C117.574 36.2135 118.488 35.8402 119.198 35.0935C119.926 34.3282 120.29 33.3108 120.29 32.0415C120.29 30.7722 119.926 29.7642 119.198 29.0175C118.488 28.2522 117.574 27.8695 116.454 27.8695C115.334 27.8695 114.41 28.2522 113.682 29.0175C112.954 29.7642 112.59 30.7722 112.59 32.0415C112.59 33.3108 112.954 34.3282 113.682 35.0935C114.41 35.8402 115.334 36.2135 116.454 36.2135ZM142.809 24.5095V39.5735H138.665V37.7815C138.087 38.4348 137.396 38.9388 136.593 39.2935C135.791 39.6295 134.923 39.7975 133.989 39.7975C132.011 39.7975 130.443 39.2282 129.285 38.0895C128.128 36.9508 127.549 35.2615 127.549 33.0215V24.5095H131.917V32.3775C131.917 34.8042 132.935 36.0175 134.969 36.0175C136.015 36.0175 136.855 35.6815 137.489 35.0095C138.124 34.3188 138.441 33.3015 138.441 31.9575V24.5095H142.809ZM151.028 26.4975C151.551 25.7695 152.251 25.2188 153.128 24.8455C154.024 24.4722 155.051 24.2855 156.208 24.2855V28.3175C155.723 28.2802 155.396 28.2615 155.228 28.2615C153.977 28.2615 152.997 28.6162 152.288 29.3255C151.579 30.0162 151.224 31.0615 151.224 32.4615V39.5735H146.856V24.5095H151.028V26.4975ZM180.396 29.4655H184.54V39.5735H181.124V38.3975C179.761 39.4055 178.007 39.9095 175.86 39.9095C174.049 39.9095 172.388 39.5175 170.876 38.7335C169.364 37.9495 168.16 36.8108 167.264 35.3175C166.368 33.8055 165.92 32.0135 165.92 29.9415C165.92 27.9442 166.377 26.1708 167.292 24.6215C168.225 23.0535 169.513 21.8308 171.156 20.9535C172.799 20.0762 174.647 19.6375 176.7 19.6375C178.417 19.6375 179.976 19.9268 181.376 20.5055C182.776 21.0842 183.952 21.9242 184.904 23.0255L181.992 25.7135C180.592 24.2388 178.903 23.5015 176.924 23.5015C175.673 23.5015 174.563 23.7722 173.592 24.3135C172.621 24.8362 171.865 25.5828 171.324 26.5535C170.783 27.5242 170.512 28.6442 170.512 29.9135C170.512 31.2388 170.773 32.3682 171.296 33.3015C171.837 34.2348 172.556 34.9442 173.452 35.4295C174.348 35.8962 175.328 36.1295 176.392 36.1295C177.979 36.1295 179.313 35.6815 180.396 34.7855V29.4655ZM192.618 26.4975C193.14 25.7695 193.84 25.2188 194.718 24.8455C195.614 24.4722 196.64 24.2855 197.798 24.2855V28.3175C197.312 28.2802 196.986 28.2615 196.818 28.2615C195.567 28.2615 194.587 28.6162 193.878 29.3255C193.168 30.0162 192.814 31.0615 192.814 32.4615V39.5735H188.446V24.5095H192.618V26.4975ZM200.395 24.5095H204.763V39.5735H200.395V24.5095ZM202.579 22.4095C201.776 22.4095 201.123 22.1762 200.619 21.7095C200.115 21.2428 199.863 20.6642 199.863 19.9735C199.863 19.2828 200.115 18.7042 200.619 18.2375C201.123 17.7708 201.776 17.5375 202.579 17.5375C203.382 17.5375 204.035 17.7615 204.539 18.2095C205.043 18.6575 205.295 19.2175 205.295 19.8895C205.295 20.6175 205.043 21.2242 204.539 21.7095C204.035 22.1762 203.382 22.4095 202.579 22.4095ZM214.221 39.7975C212.522 39.7975 211.197 39.3495 210.245 38.4535C209.293 37.5388 208.817 36.2508 208.817 34.5895V18.7975H213.185V34.3375C213.185 34.9722 213.343 35.4668 213.661 35.8215C213.997 36.1575 214.463 36.3255 215.061 36.3255C215.285 36.3255 215.509 36.2975 215.733 36.2415C215.975 36.1855 216.162 36.1202 216.293 36.0455L216.489 39.4335C215.761 39.6762 215.005 39.7975 214.221 39.7975ZM224.037 39.7975C222.339 39.7975 221.013 39.3495 220.061 38.4535C219.109 37.5388 218.633 36.2508 218.633 34.5895V18.7975H223.001V34.3375C223.001 34.9722 223.16 35.4668 223.477 35.8215C223.813 36.1575 224.28 36.3255 224.877 36.3255C225.101 36.3255 225.325 36.2975 225.549 36.2415C225.792 36.1855 225.979 36.1202 226.109 36.0455L226.305 39.4335C225.577 39.6762 224.821 39.7975 224.037 39.7975Z" fill="white"/>
<path opacity="0.4" d="M226.429 36.7382C235.328 36.7382 242.543 28.6425 242.543 18.6559C242.543 8.66924 235.328 0.573486 226.429 0.573486C217.529 0.573486 210.315 8.66924 210.315 18.6559C210.315 28.6425 217.529 36.7382 226.429 36.7382Z" stroke="white" stroke-miterlimit="10"/>
<path d="M210.642 22.8034C208.879 13.0157 214.264 2.96727 222.986 1.00024" stroke="#009C41" stroke-width="2" stroke-miterlimit="10" stroke-linecap="round"/>
<path d="M250.41 7.39893H218.573V14.7456H250.41V7.39893Z" fill="#009C41"/>
<path d="M226.133 20.3147H218.573V50.4125H226.133V20.3147Z" fill="#009C41"/>
<path d="M238.203 14.7455H230.642V50.4244H238.203V14.7455Z" fill="#009C41"/>
</svg>
