<svg width="44" height="30" viewBox="0 0 44 30" fill="none" xmlns="http://www.w3.org/2000/svg">
<path d="M41.4367 0H2.47318C1.08473 0 0 1.08473 0 2.47318V26.8579C0 28.2463 1.08473 29.3311 2.47318 29.3311H41.5234C42.9119 29.3311 43.9966 28.2463 43.9966 26.8579V2.47318C43.9532 1.08473 42.8251 0 41.4367 0ZM1.82235 3.08063L13.6242 14.3618L1.82235 26.1637V3.08063ZM24.9054 17.0086C23.3 18.5272 20.6532 18.5272 19.0478 17.0086L3.16741 1.82234H40.7858L24.9054 17.0086ZM14.9259 15.5767L17.7028 18.2668C20.0458 20.5231 23.7773 20.5231 26.1203 18.2668L28.8972 15.5767L40.7858 27.4653H3.16741L14.9259 15.5767ZM30.329 14.3618L42.1309 3.08063V26.1637L30.329 14.3618Z" fill="white"/>
</svg>
