<svg width="35" height="46" viewBox="0 0 35 46" fill="none" xmlns="http://www.w3.org/2000/svg">
<path d="M17.135 41.2818C16.6091 41.2818 16.1709 40.8874 16.1709 40.3177V34.5768C16.1709 34.0509 16.5653 33.6127 17.135 33.6127C17.6609 33.6127 18.0991 34.0071 18.0991 34.5768V40.3177C18.0991 40.8436 17.6609 41.2818 17.135 41.2818Z" fill="white"/>
<path d="M33.3061 45.6204H0.964362C0.43848 45.6204 0.000244141 45.226 0.000244141 44.6563V20.9039C0.000244141 20.3781 0.394656 19.9398 0.964362 19.9398H33.2185C33.7443 19.9398 34.1826 20.3342 34.1826 20.9039V44.6125C34.2264 45.1383 33.832 45.6204 33.3061 45.6204ZM1.9723 43.736H32.342V21.8242H1.9723V43.736Z" fill="white"/>
<path d="M27.6093 21.8244H6.70545C6.17957 21.8244 5.74133 21.4299 5.74133 20.8602V11.3944C5.74133 5.08377 10.8687 0.000244141 17.1354 0.000244141C23.4022 0.000244141 28.5296 5.12759 28.5296 11.3944V20.9041C28.5296 21.4299 28.0913 21.8244 27.6093 21.8244ZM7.62574 19.9399H26.6451V11.3944C26.6451 6.17936 22.3504 1.88465 17.1354 1.88465C11.9204 1.88465 7.62574 6.17936 7.62574 11.3944V19.9399Z" fill="white"/>
<path d="M17.135 35.1033C14.5495 35.1033 12.3583 32.956 12.3583 30.3266C12.3583 27.741 14.5056 25.5498 17.135 25.5498C19.7206 25.5498 21.9118 27.6972 21.9118 30.3266C21.9118 32.956 19.7206 35.1033 17.135 35.1033ZM17.135 27.5657C15.5574 27.5657 14.2865 28.7927 14.2865 30.4142C14.2865 31.9919 15.5136 33.2627 17.135 33.2627C18.7565 33.2627 19.9836 32.0357 19.9836 30.4142C19.9836 28.7927 18.7127 27.5657 17.135 27.5657Z" fill="white"/>
</svg>
