<svg width="597" height="231" viewBox="0 0 597 231" fill="none" xmlns="http://www.w3.org/2000/svg">
<path d="M20.7361 56.96V78.848C20.7361 80.5547 20.9921 81.7494 21.5041 82.432C22.0161 83.1147 23.0401 83.5414 24.5761 83.712L33.6641 84.864V92.16H6.48499e-05V84.864L6.40007 83.712C7.93607 83.456 8.9174 83.0294 9.34406 82.432C9.85606 81.7494 10.1121 80.5547 10.1121 78.848V13.312C10.1121 11.6054 9.85606 10.4534 9.34406 9.85603C8.9174 9.17337 7.93607 8.70403 6.40007 8.44803L6.48499e-05 7.29603V3.05176e-05H33.1521C43.1361 3.05176e-05 50.5174 2.00536 55.2961 6.01603C60.1601 9.94136 62.5921 16.0854 62.5921 24.448C62.5921 30.9334 61.1841 36.6507 58.3681 41.6C55.5521 46.5494 51.6694 50.3467 46.7201 52.992C41.8561 55.6374 36.3521 56.96 30.2081 56.96H20.7361ZM51.0721 26.24C51.0721 14.72 44.8427 8.96003 32.3841 8.96003H20.7361V48.256H31.7441C38.7414 48.256 43.6907 46.5067 46.5921 43.008C49.5787 39.424 51.0721 33.8347 51.0721 26.24ZM83.3951 15.872C80.7497 15.872 78.9151 15.3174 77.8911 14.208C76.8671 13.0987 76.3551 11.264 76.3551 8.70403C76.3551 6.0587 76.9524 4.1387 78.1471 2.94403C79.4271 1.74936 81.4324 1.15203 84.1631 1.15203C86.8084 1.15203 88.6004 1.74936 89.5391 2.94403C90.5631 4.05337 91.0751 6.01603 91.0751 8.83203C91.0751 11.4774 90.4777 13.312 89.2831 14.336C88.0884 15.36 86.1257 15.872 83.3951 15.872ZM70.5951 85.248L77.1231 84.352C78.4031 84.2667 79.2137 83.9254 79.5551 83.328C79.8964 82.6454 80.0671 81.408 80.0671 79.616V43.008C80.0671 41.1307 79.8964 39.8934 79.5551 39.296C79.2137 38.6134 78.4031 38.2294 77.1231 38.144L70.5951 37.376V30.72H90.3071V79.616C90.3071 81.408 90.4777 82.6454 90.8191 83.328C91.2457 83.9254 92.0564 84.2667 93.2511 84.352L99.9071 85.248V92.16H70.5951V85.248ZM216.112 85.248V92.16H196.272V50.944C196.272 47.2747 195.12 44.3734 192.816 42.24C190.597 40.0214 187.611 38.912 183.856 38.912C180.528 38.912 177.371 39.8507 174.384 41.728C171.483 43.6054 169.179 46.0374 167.472 49.024V52.096V79.616C167.472 81.408 167.643 82.6454 167.984 83.328C168.325 83.9254 169.136 84.2667 170.416 84.352L177.328 85.248V92.16H157.232V50.944C157.232 47.1894 156.08 44.2454 153.776 42.112C151.557 39.9787 148.571 38.912 144.816 38.912C141.488 38.912 138.373 39.808 135.472 41.6C132.571 43.3067 130.224 45.7387 128.432 48.896V79.616C128.432 81.408 128.603 82.6454 128.944 83.328C129.371 83.9254 130.181 84.2667 131.376 84.352L138.416 85.248V92.16H108.72V85.248L115.248 84.352C116.528 84.2667 117.339 83.9254 117.68 83.328C118.021 82.6454 118.192 81.408 118.192 79.616V43.008C118.192 41.1307 118.021 39.8934 117.68 39.296C117.339 38.6134 116.528 38.2294 115.248 38.144L108.72 37.376V30.72H126.896L127.92 40.576C133.808 33.152 140.72 29.44 148.656 29.44C153.008 29.44 156.72 30.464 159.792 32.512C162.864 34.4747 165.04 37.3334 166.32 41.088C169.221 37.4187 172.336 34.56 175.664 32.512C178.992 30.464 182.96 29.44 187.568 29.44C193.456 29.44 198.064 31.1894 201.392 34.688C204.805 38.1867 206.512 42.7094 206.512 48.256V79.616C206.512 81.408 206.683 82.6454 207.024 83.328C207.365 83.9254 208.176 84.2667 209.456 84.352L216.112 85.248ZM262.605 29.44C270.37 29.44 276.301 32.2134 280.397 37.76C284.493 43.2214 286.541 50.7734 286.541 60.416C286.541 66.56 285.176 72.1494 282.445 77.184C279.8 82.2187 276.13 86.1867 271.437 89.088C266.829 91.9894 261.624 93.44 255.821 93.44C251.469 93.44 247.16 92.5867 242.893 90.88V110.336C242.893 112.128 243.064 113.323 243.405 113.92C243.832 114.603 244.642 114.987 245.837 115.072L254.541 115.968V122.88H222.925V115.968L229.837 115.072C231.032 114.987 231.8 114.603 232.141 113.92C232.482 113.323 232.653 112.128 232.653 110.336V43.008C232.653 41.1307 232.482 39.8934 232.141 39.296C231.8 38.6134 231.032 38.2294 229.837 38.144L223.181 37.376V30.72H241.613L242.637 39.04C248.013 32.64 254.669 29.44 262.605 29.44ZM259.661 84.864C265.293 84.864 269.304 82.8587 271.693 78.848C274.168 74.752 275.405 68.608 275.405 60.416C275.405 53.1627 273.954 47.616 271.053 43.776C268.237 39.8507 264.226 37.888 259.021 37.888C255.778 37.888 252.706 38.8267 249.805 40.704C246.904 42.496 244.6 44.8 242.893 47.616V80.384C247.501 83.3707 253.09 84.864 259.661 84.864ZM406.282 3.05176e-05V7.29603L401.418 7.93603C399.711 8.19203 398.474 8.66136 397.706 9.34403C397.023 9.94136 396.127 11.264 395.018 13.312L369.674 59.648V78.848C369.674 80.5547 369.887 81.7494 370.314 82.432C370.826 83.0294 371.85 83.456 373.386 83.712L380.682 84.864V92.16H348.042V84.864L355.338 83.712C356.874 83.456 357.855 83.0294 358.282 82.432C358.794 81.7494 359.05 80.5547 359.05 78.848V59.648L333.578 13.312C332.554 11.52 331.53 10.2827 330.506 9.60003C329.482 8.91736 327.946 8.36269 325.898 7.93603L322.314 7.29603V3.05176e-05H354.954V7.16803L348.554 7.93603C345.823 8.27736 344.458 9.08803 344.458 10.368C344.458 10.9654 344.799 11.9467 345.482 13.312L365.322 49.792L384.906 13.312C385.503 12.288 385.802 11.392 385.802 10.624C385.802 9.42936 384.351 8.57603 381.45 8.06403L375.434 7.16803V3.05176e-05H406.282ZM429.481 93.44C420.862 93.44 414.121 90.7094 409.257 85.248C404.393 79.7867 401.961 72.5334 401.961 63.488C401.961 56.9174 403.284 51.072 405.929 45.952C408.574 40.7467 412.286 36.6934 417.065 33.792C421.844 30.8907 427.39 29.44 433.705 29.44C442.238 29.44 448.937 32.1707 453.801 37.632C458.75 43.008 461.225 50.0907 461.225 58.88C461.225 65.4507 459.902 71.3814 457.257 76.672C454.697 81.8774 450.985 85.9734 446.121 88.96C441.342 91.9467 435.796 93.44 429.481 93.44ZM433.321 84.864C439.55 84.864 443.902 83.0294 446.377 79.36C448.852 75.6054 450.089 69.632 450.089 61.44C450.089 53.8454 448.34 48.0427 444.841 44.032C441.342 39.936 436.35 37.888 429.865 37.888C423.636 37.888 419.284 39.7654 416.809 43.52C414.334 47.2747 413.097 53.248 413.097 61.44C413.097 69.2054 414.846 75.0507 418.345 78.976C421.844 82.9014 426.836 84.864 433.321 84.864ZM538.277 85.248V92.16H520.357L519.333 82.432C512.677 89.7707 505.466 93.44 497.701 93.44C491.386 93.44 486.48 91.8614 482.981 88.704C479.568 85.5467 477.861 81.024 477.861 75.136V43.008C477.861 41.1307 477.69 39.8934 477.349 39.296C477.008 38.6134 476.197 38.2294 474.917 38.144L468.261 37.376V30.72H488.101V71.68C488.101 79.7867 492.069 83.84 500.005 83.84C507.941 83.84 514.128 80.5547 518.565 73.984V43.008C518.565 41.1307 518.352 39.8934 517.925 39.296C517.584 38.6134 516.816 38.2294 515.621 38.144L508.581 37.376V30.72H528.805V79.616C528.805 81.408 528.976 82.6454 529.317 83.328C529.658 83.9254 530.426 84.2667 531.621 84.352L538.277 85.248ZM586.01 29.44C589.935 29.44 593.349 30.2507 596.25 31.872L595.226 48H587.802L586.394 39.936C585.37 39.2534 583.791 38.912 581.658 38.912C578.33 38.912 575.258 40.4054 572.442 43.392C569.626 46.3787 567.706 49.9627 566.682 54.144V79.616C566.682 81.408 566.853 82.6454 567.194 83.328C567.621 83.9254 568.431 84.2667 569.626 84.352L578.714 85.248V92.16H546.714V85.248L553.498 84.352C554.778 84.2667 555.589 83.9254 555.93 83.328C556.271 82.6454 556.442 81.408 556.442 79.616V43.008C556.442 41.1307 556.271 39.8934 555.93 39.296C555.589 38.6134 554.778 38.2294 553.498 38.144L546.97 37.376V30.72H564.89L566.17 42.88C568.047 39.1254 570.821 35.968 574.49 33.408C578.159 30.7627 581.999 29.44 586.01 29.44Z" fill="#202020"/>
<path d="M151.539 230.08C140.446 230.08 132.638 227.947 128.115 223.68C123.678 219.328 121.459 212.928 121.459 204.48C121.459 202.091 121.63 199.573 121.971 196.928C122.312 194.197 122.739 191.296 123.251 188.224C124.446 181.312 126.024 175.253 127.987 170.048C130.035 164.757 132.766 160.363 136.179 156.864C139.592 153.28 143.944 150.635 149.235 148.928C154.611 147.136 161.224 146.24 169.075 146.24C171.208 146.24 173.768 146.411 176.755 146.752C179.742 147.093 182.643 147.52 185.459 148.032C188.275 148.459 190.451 148.971 191.987 149.568L184.947 169.152C181.875 168.555 178.675 168.128 175.347 167.872C172.019 167.531 169.246 167.36 167.027 167.36C162.248 167.36 158.622 167.744 156.147 168.512C153.672 169.28 152.222 171.029 151.795 173.76L145.523 209.984H153.587C156.062 209.984 158.11 209.728 159.731 209.216C161.352 208.619 162.376 207.083 162.803 204.608L163.443 201.152H157.299L160.755 181.568H190.067L182.515 224.32C177.139 226.283 171.678 227.733 166.131 228.672C160.67 229.611 155.806 230.08 151.539 230.08ZM134.771 152.384L95.6031 148.16H140.531C139.507 148.757 138.526 149.397 137.587 150.08C136.648 150.763 135.71 151.531 134.771 152.384ZM125.811 165.568L77.9391 160.448H128.371C127.944 161.301 127.518 162.155 127.091 163.008C126.664 163.776 126.238 164.629 125.811 165.568ZM121.587 177.984L71.9231 172.736H123.123L121.587 177.984ZM119.155 190.4L68.8511 185.024H120.051L119.667 187.584C119.582 188.096 119.496 188.608 119.411 189.12C119.326 189.547 119.24 189.973 119.155 190.4ZM117.875 202.688L67.4431 197.312H118.259C118.003 199.189 117.875 200.981 117.875 202.688ZM118.899 214.976L69.1071 209.6H118.003C118.174 210.539 118.302 211.477 118.387 212.416C118.558 213.269 118.728 214.123 118.899 214.976ZM125.683 226.752L81.3951 222.016H121.843C122.952 223.979 124.232 225.557 125.683 226.752ZM219.328 228.16L231.104 160.448H263.616C268.395 160.448 272.107 161.173 274.752 162.624C277.483 164.075 279.403 166.08 280.512 168.64C281.707 171.2 282.304 174.101 282.304 177.344C282.304 179.904 281.92 183.019 281.152 186.688C280.469 190.357 279.147 193.941 277.184 197.44C275.307 200.853 272.533 203.584 268.864 205.632L276.16 228.16H252.224L247.36 208.448H244.288L240.832 228.16H219.328ZM225.984 166.208L171.712 160.448H226.88L225.984 166.208ZM223.808 178.496L169.536 172.736H224.832L223.808 178.496ZM247.36 190.912H251.456C253.163 190.912 254.613 190.699 255.808 190.272C257.088 189.76 257.856 188.693 258.112 187.072L258.88 182.592C258.88 182.421 258.88 182.293 258.88 182.208C258.965 182.037 259.008 181.909 259.008 181.824C259.008 180.629 258.368 179.904 257.088 179.648C255.893 179.307 254.272 179.136 252.224 179.136H249.408L247.36 190.912ZM221.632 190.784L167.36 185.024H222.656L221.632 190.784ZM219.456 203.072L165.184 197.312H220.48L219.456 203.072ZM217.28 215.36L163.008 209.6H218.304L217.28 215.36ZM215.104 227.776L160.832 222.016H216.128L215.104 227.776ZM311.578 228.16L323.354 160.448H345.882L333.978 228.16H311.578ZM318.234 166.208L263.962 160.448H319.13L318.234 166.208ZM316.058 178.496L261.786 172.736H317.082L316.058 178.496ZM313.882 190.784L259.61 185.024H314.906L313.882 190.784ZM311.706 203.072L257.434 197.312H312.73L311.706 203.072ZM309.53 215.36L255.258 209.6H310.554L309.53 215.36ZM307.354 227.776L253.082 222.016H308.378L307.354 227.776ZM374.203 228.16L385.979 160.448H408.507L399.931 209.344H419.131L415.803 228.16H374.203ZM380.859 166.208L326.587 160.448H381.755L380.859 166.208ZM378.683 178.496L324.411 172.736H379.707L378.683 178.496ZM376.507 190.784L322.235 185.024H377.531L376.507 190.784ZM374.331 203.072L320.059 197.312H375.355L374.331 203.072ZM372.155 215.36L317.883 209.6H373.179L372.155 215.36ZM369.979 227.776L315.707 222.016H371.003L369.979 227.776ZM446.828 228.16L458.604 160.448H481.132L472.556 209.344H491.756L488.428 228.16H446.828ZM453.484 166.208L399.212 160.448H454.38L453.484 166.208ZM451.308 178.496L397.036 172.736H452.332L451.308 178.496ZM449.132 190.784L394.86 185.024H450.156L449.132 190.784ZM446.956 203.072L392.684 197.312H447.98L446.956 203.072ZM444.78 215.36L390.508 209.6H445.804L444.78 215.36ZM442.604 227.776L388.332 222.016H443.628L442.604 227.776Z" fill="#721D08"/>
</svg>
