<svg width="65" height="47" viewBox="0 0 65 47" fill="none" xmlns="http://www.w3.org/2000/svg">
<path d="M38.3358 22.8159L27.592 28.9552V16.6766L38.3358 22.8159Z" fill="white" stroke="white" stroke-width="3" stroke-linecap="round" stroke-linejoin="round"/>
<path d="M1.5 25.4648V21.1212C1.5 12.2346 1.5 7.78972 4.27803 4.93187C7.05914 2.07096 11.4365 1.94817 20.188 1.69953C24.3321 1.58288 28.5682 1.5 32.1965 1.5C35.8218 1.5 40.0579 1.58288 44.205 1.69953C52.9566 1.94817 57.3339 2.07096 60.1119 4.93187C62.893 7.78972 62.893 12.2376 62.893 21.1212V25.4648C62.893 34.3545 62.893 38.7963 60.115 41.6572C57.3339 44.515 52.9596 44.6409 44.205 44.8865C40.061 45.0062 35.8248 45.0891 32.1965 45.0891C28.1929 45.077 24.1897 45.0095 20.188 44.8865C11.4365 44.6409 7.05914 44.5181 4.27803 41.6572C1.5 38.7963 1.5 34.3514 1.5 25.4678V25.4648Z" stroke="white" stroke-width="3"/>
</svg>
