<svg width="305" height="57" viewBox="0 0 305 57" fill="none" xmlns="http://www.w3.org/2000/svg">
<path d="M11.58 26.5212C13.44 26.5212 15.05 26.8312 16.41 27.4512C17.79 28.0712 18.85 28.9512 19.59 30.0912C20.33 31.2312 20.7 32.5812 20.7 34.1412C20.7 35.6812 20.33 37.0312 19.59 38.1912C18.85 39.3312 17.79 40.2112 16.41 40.8312C15.05 41.4312 13.44 41.7312 11.58 41.7312H7.35V47.5212H2.49V26.5212H11.58ZM11.31 37.7712C12.77 37.7712 13.88 37.4612 14.64 36.8412C15.4 36.2012 15.78 35.3012 15.78 34.1412C15.78 32.9612 15.4 32.0612 14.64 31.4412C13.88 30.8012 12.77 30.4812 11.31 30.4812H7.35V37.7712H11.31ZM23.8397 31.3812H28.5197V47.5212H23.8397V31.3812ZM26.1797 29.1312C25.3197 29.1312 24.6197 28.8812 24.0797 28.3812C23.5397 27.8812 23.2697 27.2612 23.2697 26.5212C23.2697 25.7812 23.5397 25.1612 24.0797 24.6612C24.6197 24.1612 25.3197 23.9112 26.1797 23.9112C27.0397 23.9112 27.7397 24.1512 28.2797 24.6312C28.8197 25.1112 29.0897 25.7112 29.0897 26.4312C29.0897 27.2112 28.8197 27.8612 28.2797 28.3812C27.7397 28.8812 27.0397 29.1312 26.1797 29.1312ZM53.5331 31.1412C55.5531 31.1412 57.1531 31.7412 58.3331 32.9412C59.5331 34.1212 60.1331 35.9012 60.1331 38.2812V47.5212H55.4531V39.0012C55.4531 37.7212 55.1831 36.7712 54.6431 36.1512C54.1231 35.5112 53.3731 35.1912 52.3931 35.1912C51.2931 35.1912 50.4231 35.5512 49.7831 36.2712C49.1431 36.9712 48.8231 38.0212 48.8231 39.4212V47.5212H44.1431V39.0012C44.1431 36.4612 43.1231 35.1912 41.0831 35.1912C40.0031 35.1912 39.1431 35.5512 38.5031 36.2712C37.8631 36.9712 37.5431 38.0212 37.5431 39.4212V47.5212H32.8631V31.3812H37.3331V33.2412C37.9331 32.5612 38.6631 32.0412 39.5231 31.6812C40.4031 31.3212 41.3631 31.1412 42.4031 31.1412C43.5431 31.1412 44.5731 31.3712 45.4931 31.8312C46.4131 32.2712 47.1531 32.9212 47.7131 33.7812C48.3731 32.9412 49.2031 32.2912 50.2031 31.8312C51.2231 31.3712 52.3331 31.1412 53.5331 31.1412ZM73.868 31.1412C75.368 31.1412 76.728 31.4912 77.948 32.1912C79.188 32.8712 80.158 33.8412 80.858 35.1012C81.558 36.3412 81.908 37.7912 81.908 39.4512C81.908 41.1112 81.558 42.5712 80.858 43.8312C80.158 45.0712 79.188 46.0412 77.948 46.7412C76.728 47.4212 75.368 47.7612 73.868 47.7612C71.808 47.7612 70.188 47.1112 69.008 45.8112V53.3412H64.328V31.3812H68.798V33.2412C69.958 31.8412 71.648 31.1412 73.868 31.1412ZM73.058 43.9212C74.258 43.9212 75.238 43.5212 75.998 42.7212C76.778 41.9012 77.168 40.8112 77.168 39.4512C77.168 38.0912 76.778 37.0112 75.998 36.2112C75.238 35.3912 74.258 34.9812 73.058 34.9812C71.858 34.9812 70.868 35.3912 70.088 36.2112C69.328 37.0112 68.948 38.0912 68.948 39.4512C68.948 40.8112 69.328 41.9012 70.088 42.7212C70.868 43.5212 71.858 43.9212 73.058 43.9212ZM112.617 26.5212V40.9512C112.617 44.1112 111.737 46.5312 109.977 48.2112C108.217 49.9112 105.787 50.7612 102.687 50.7612C100.907 50.7612 99.277 50.5112 97.797 50.0112C96.317 49.5312 95.057 48.8412 94.017 47.9412L95.907 44.3412C97.807 45.8812 100.027 46.6512 102.567 46.6512C104.327 46.6512 105.627 46.2112 106.467 45.3312C107.327 44.4312 107.757 43.0512 107.757 41.1912V39.9012C106.357 41.6212 104.377 42.4812 101.817 42.4812C99.157 42.4812 97.107 41.7312 95.667 40.2312C94.247 38.7112 93.537 36.5312 93.537 33.6912V26.5212H98.397V33.3912C98.397 35.0312 98.787 36.2712 99.567 37.1112C100.347 37.9512 101.447 38.3712 102.867 38.3712C104.367 38.3712 105.557 37.9312 106.437 37.0512C107.317 36.1712 107.757 34.8412 107.757 33.0612V26.5212H112.617ZM124.772 47.7612C123.072 47.7612 121.542 47.4112 120.182 46.7112C118.842 45.9912 117.792 45.0012 117.032 43.7412C116.272 42.4812 115.892 41.0512 115.892 39.4512C115.892 37.8512 116.272 36.4212 117.032 35.1612C117.792 33.9012 118.842 32.9212 120.182 32.2212C121.542 31.5012 123.072 31.1412 124.772 31.1412C126.472 31.1412 127.992 31.5012 129.332 32.2212C130.672 32.9212 131.722 33.9012 132.482 35.1612C133.242 36.4212 133.622 37.8512 133.622 39.4512C133.622 41.0512 133.242 42.4812 132.482 43.7412C131.722 45.0012 130.672 45.9912 129.332 46.7112C127.992 47.4112 126.472 47.7612 124.772 47.7612ZM124.772 43.9212C125.972 43.9212 126.952 43.5212 127.712 42.7212C128.492 41.9012 128.882 40.8112 128.882 39.4512C128.882 38.0912 128.492 37.0112 127.712 36.2112C126.952 35.3912 125.972 34.9812 124.772 34.9812C123.572 34.9812 122.582 35.3912 121.802 36.2112C121.022 37.0112 120.632 38.0912 120.632 39.4512C120.632 40.8112 121.022 41.9012 121.802 42.7212C122.582 43.5212 123.572 43.9212 124.772 43.9212ZM153.01 31.3812V47.5212H148.57V45.6012C147.95 46.3012 147.21 46.8412 146.35 47.2212C145.49 47.5812 144.56 47.7612 143.56 47.7612C141.44 47.7612 139.76 47.1512 138.52 45.9312C137.28 44.7112 136.66 42.9012 136.66 40.5012V31.3812H141.34V39.8112C141.34 42.4112 142.43 43.7112 144.61 43.7112C145.73 43.7112 146.63 43.3512 147.31 42.6312C147.99 41.8912 148.33 40.8012 148.33 39.3612V31.3812H153.01ZM161.816 33.5112C162.376 32.7312 163.126 32.1412 164.066 31.7412C165.026 31.3412 166.126 31.1412 167.366 31.1412V35.4612C166.846 35.4212 166.496 35.4012 166.316 35.4012C164.976 35.4012 163.926 35.7812 163.166 36.5412C162.406 37.2812 162.026 38.4012 162.026 39.9012V47.5212H157.346V31.3812H161.816V33.5112ZM193.282 36.6912H197.722V47.5212H194.062V46.2612C192.602 47.3412 190.722 47.8812 188.422 47.8812C186.482 47.8812 184.702 47.4612 183.082 46.6212C181.462 45.7812 180.172 44.5612 179.212 42.9612C178.252 41.3412 177.772 39.4212 177.772 37.2012C177.772 35.0612 178.262 33.1612 179.242 31.5012C180.242 29.8212 181.622 28.5112 183.382 27.5712C185.142 26.6312 187.122 26.1612 189.322 26.1612C191.162 26.1612 192.832 26.4712 194.332 27.0912C195.832 27.7112 197.092 28.6112 198.112 29.7912L194.992 32.6712C193.492 31.0912 191.682 30.3012 189.562 30.3012C188.222 30.3012 187.032 30.5912 185.992 31.1712C184.952 31.7312 184.142 32.5312 183.562 33.5712C182.982 34.6112 182.692 35.8112 182.692 37.1712C182.692 38.5912 182.972 39.8012 183.532 40.8012C184.112 41.8012 184.882 42.5612 185.842 43.0812C186.802 43.5812 187.852 43.8312 188.992 43.8312C190.692 43.8312 192.122 43.3512 193.282 42.3912V36.6912ZM206.376 33.5112C206.936 32.7312 207.686 32.1412 208.626 31.7412C209.586 31.3412 210.686 31.1412 211.926 31.1412V35.4612C211.406 35.4212 211.056 35.4012 210.876 35.4012C209.536 35.4012 208.486 35.7812 207.726 36.5412C206.966 37.2812 206.586 38.4012 206.586 39.9012V47.5212H201.906V31.3812H206.376V33.5112ZM214.709 31.3812H219.389V47.5212H214.709V31.3812ZM217.049 29.1312C216.189 29.1312 215.489 28.8812 214.949 28.3812C214.409 27.8812 214.139 27.2612 214.139 26.5212C214.139 25.7812 214.409 25.1612 214.949 24.6612C215.489 24.1612 216.189 23.9112 217.049 23.9112C217.909 23.9112 218.609 24.1512 219.149 24.6312C219.689 25.1112 219.959 25.7112 219.959 26.4312C219.959 27.2112 219.689 27.8612 219.149 28.3812C218.609 28.8812 217.909 29.1312 217.049 29.1312ZM229.522 47.7612C227.702 47.7612 226.282 47.2812 225.262 46.3212C224.242 45.3412 223.732 43.9612 223.732 42.1812V25.2612H228.412V41.9112C228.412 42.5912 228.582 43.1212 228.922 43.5012C229.282 43.8612 229.782 44.0412 230.422 44.0412C230.662 44.0412 230.902 44.0112 231.142 43.9512C231.402 43.8912 231.602 43.8212 231.742 43.7412L231.952 47.3712C231.172 47.6312 230.362 47.7612 229.522 47.7612ZM240.04 47.7612C238.22 47.7612 236.8 47.2812 235.78 46.3212C234.76 45.3412 234.25 43.9612 234.25 42.1812V25.2612H238.93V41.9112C238.93 42.5912 239.1 43.1212 239.44 43.5012C239.8 43.8612 240.3 44.0412 240.94 44.0412C241.18 44.0412 241.42 44.0112 241.66 43.9512C241.92 43.8912 242.12 43.8212 242.26 43.7412L242.47 47.3712C241.69 47.6312 240.88 47.7612 240.04 47.7612Z" fill="white"/>
<path opacity="0.4" d="M274.792 41.117C286.003 41.117 295.09 32.0293 295.09 20.8191C295.09 9.6089 286.003 0.52124 274.792 0.52124C263.582 0.52124 254.495 9.6089 254.495 20.8191C254.495 32.0293 263.582 41.117 274.792 41.117Z" stroke="white" stroke-miterlimit="10"/>
<path d="M254.907 25.4747C252.686 14.4878 259.469 3.20827 270.456 1.00024" stroke="#009C41" stroke-width="2" stroke-miterlimit="10" stroke-linecap="round"/>
<path d="M305 8.18286H264.896V16.4297H305V8.18286Z" fill="#009C41"/>
<path d="M274.42 22.6812H264.896V56.4666H274.42V22.6812Z" fill="#009C41"/>
<path d="M289.624 16.4296H280.1V56.4799H289.624V16.4296Z" fill="#009C41"/>
</svg>
